<svg width="14" height="24" viewBox="0 0 14 24" fill="none" xmlns="http://www.w3.org/2000/svg">
<path fill-rule="evenodd" clip-rule="evenodd" d="M9.3192 1.83252C8.57652 2.27274 7.92365 2.826 7.36057 3.49232C6.98875 3.93232 6.26806 3.65558 6.26806 3.07907V1.81281C6.26806 1.37615 5.83283 1.07382 5.42463 1.22691L1.27784 2.78221C1.03394 2.87369 0.872314 3.10719 0.872314 3.3681V23.1026H0.939364L5.86254 21.2561C6.10644 21.1646 6.26806 20.9311 6.26806 20.6702V12.3737C6.26806 10.3228 6.95331 8.6939 8.32263 7.48781C9.56506 6.39395 11.1886 5.85373 13.1936 5.8658C13.5399 5.86789 13.823 5.58907 13.823 5.24218V1.3034C13.823 0.940211 13.5141 0.650272 13.1526 0.677562C11.7129 0.786243 10.4355 1.17136 9.3192 1.83252Z" fill="black"/>
<path fill-rule="evenodd" clip-rule="evenodd" d="M9.3192 1.83252C8.57652 2.27274 7.92365 2.826 7.36057 3.49232C6.98875 3.93232 6.26806 3.65558 6.26806 3.07907V1.81281C6.26806 1.37615 5.83283 1.07382 5.42463 1.22691L1.27784 2.78221C1.03394 2.87369 0.872314 3.10719 0.872314 3.3681V23.1026H0.939364L5.86254 21.2561C6.10644 21.1646 6.26806 20.9311 6.26806 20.6702V12.3737C6.26806 10.3228 6.95331 8.6939 8.32263 7.48781C9.56506 6.39395 11.1886 5.85373 13.1936 5.8658C13.5399 5.86789 13.823 5.58907 13.823 5.24218V1.3034C13.823 0.940211 13.5141 0.650272 13.1526 0.677562C11.7129 0.786243 10.4355 1.17136 9.3192 1.83252Z" fill="black"/>
</svg>
