<svg width="18" height="24" viewBox="0 0 18 24" fill="none" xmlns="http://www.w3.org/2000/svg">
<path fill-rule="evenodd" clip-rule="evenodd" d="M12.417 5.38808C11.2684 5.02809 10.2098 4.84716 9.24118 4.84716C8.3279 4.84716 7.60191 5.00738 7.06196 5.32534C6.52264 5.64455 6.25267 6.13613 6.25267 6.80191C6.25267 7.49512 6.59134 8.02873 7.26991 8.40273C7.94726 8.77675 9.01925 9.17209 10.4864 9.58813C12.0363 10.0596 13.309 10.5238 14.3055 10.9812C15.3015 11.4381 16.1661 12.1179 16.8994 13.0188C17.6327 13.9198 18 15.1051 18 16.5738C18 18.7363 17.1694 20.3998 15.5095 21.5639C13.8489 22.7286 11.7591 23.3109 9.24118 23.3109C7.52528 23.3109 5.85134 23.0405 4.21875 22.4995C2.77153 22.0208 1.52054 21.3621 0.464935 20.5241C0.231216 20.3385 0.153916 20.0173 0.286108 19.7495L1.59346 17.1007C1.76668 16.7497 2.2118 16.647 2.52661 16.879C3.39273 17.5172 4.38533 18.0324 5.50537 18.4244C6.88866 18.9099 8.20386 19.1523 9.44913 19.1523C10.4451 19.1523 11.2404 18.9793 11.8357 18.6327C12.4303 18.2861 12.7283 17.7665 12.7283 17.0733C12.7283 16.2972 12.3817 15.7149 11.6904 15.3263C10.9984 14.9388 9.8778 14.5094 8.3279 14.0373C6.83394 13.5945 5.61604 13.1577 4.67542 12.7276C3.73415 12.2982 2.91755 11.6464 2.22621 10.7729C1.53426 9.90001 1.18891 8.75604 1.18891 7.34221C1.18891 5.15296 1.98363 3.48209 3.57545 2.33141C5.16609 1.18134 7.16594 0.605713 9.57315 0.605713C11.0397 0.605713 12.4857 0.813414 13.9109 1.22947C15.1304 1.58547 16.2333 2.06277 17.22 2.66212C17.4996 2.83198 17.6037 3.18759 17.4574 3.48057L16.0511 6.29789C15.8945 6.61162 15.5098 6.73672 15.2016 6.57014C14.2971 6.08107 13.3687 5.68705 12.417 5.38808Z" fill="black"/>
<path fill-rule="evenodd" clip-rule="evenodd" d="M12.417 5.38808C11.2684 5.02809 10.2098 4.84716 9.24118 4.84716C8.3279 4.84716 7.60191 5.00738 7.06196 5.32534C6.52264 5.64455 6.25267 6.13613 6.25267 6.80191C6.25267 7.49512 6.59134 8.02873 7.26991 8.40273C7.94726 8.77675 9.01925 9.17209 10.4864 9.58813C12.0363 10.0596 13.309 10.5238 14.3055 10.9812C15.3015 11.4381 16.1661 12.1179 16.8994 13.0188C17.6327 13.9198 18 15.1051 18 16.5738C18 18.7363 17.1694 20.3998 15.5095 21.5639C13.8489 22.7286 11.7591 23.3109 9.24118 23.3109C7.52528 23.3109 5.85134 23.0405 4.21875 22.4995C2.77153 22.0208 1.52054 21.3621 0.464935 20.5241C0.231216 20.3385 0.153916 20.0173 0.286108 19.7495L1.59346 17.1007C1.76668 16.7497 2.2118 16.647 2.52661 16.879C3.39273 17.5172 4.38533 18.0324 5.50537 18.4244C6.88866 18.9099 8.20386 19.1523 9.44913 19.1523C10.4451 19.1523 11.2404 18.9793 11.8357 18.6327C12.4303 18.2861 12.7283 17.7665 12.7283 17.0733C12.7283 16.2972 12.3817 15.7149 11.6904 15.3263C10.9984 14.9388 9.8778 14.5094 8.3279 14.0373C6.83394 13.5945 5.61604 13.1577 4.67542 12.7276C3.73415 12.2982 2.91755 11.6464 2.22621 10.7729C1.53426 9.90001 1.18891 8.75604 1.18891 7.34221C1.18891 5.15296 1.98363 3.48209 3.57545 2.33141C5.16609 1.18134 7.16594 0.605713 9.57315 0.605713C11.0397 0.605713 12.4857 0.813414 13.9109 1.22947C15.1304 1.58547 16.2333 2.06277 17.22 2.66212C17.4996 2.83198 17.6037 3.18759 17.4574 3.48057L16.0511 6.29789C15.8945 6.61162 15.5098 6.73672 15.2016 6.57014C14.2971 6.08107 13.3687 5.68705 12.417 5.38808Z" fill="black"/>
</svg>
